HIERARCHY
ROOT Hips
{
  OFFSET 5.78187 94.3565 -221.32
  CHANNELS 6 Xposition Yposition Zposition Zrotation Xrotation Yrotation
  JOINT ToSpine
  {
    OFFSET -2.69724 7.43032 -0.144315
    CHANNELS 3 Zrotation Xrotation Yrotation
    JOINT Spine
    {
      OFFSET -0.0310711 10.7595 1.96963
      CHANNELS 3 Zrotation Xrotation Yrotation
      JOINT Spine1
      {
        OFFSET 13.1342 3.43533 0.764692
        CHANNELS 3 Zrotation Xrotation Yrotation
        JOINT Neck
        {
          OFFSET 29.8703 7.82586 -0.130764
          CHANNELS 3 Zrotation Xrotation Yrotation
          JOINT Head
          {
            OFFSET 9.52751 0.295786 -0.907742
            CHANNELS 3 Zrotation Xrotation Yrotation
            End Site
            {
              OFFSET 16.4037 0.713936 2.7358
            }
          }
        }
        JOINT LeftShoulder
        {
          OFFSET 27.5574 4.95586 2.47156
          CHANNELS 3 Zrotation Xrotation Yrotation
          JOINT LeftArm
          {
            OFFSET 1.20734 -0.998971 20.1238
            CHANNELS 3 Zrotation Xrotation Yrotation
            JOINT LeftForeArm
            {
              OFFSET 26.8049 -0.0536703 -0.155908
              CHANNELS 3 Zrotation Xrotation Yrotation
              JOINT LeftHand
              {
                OFFSET 26.6817 0 0.320147
                CHANNELS 3 Zrotation Xrotation Yrotation
                End Site
                {
                  OFFSET 18.6119 0 0.382219
                }
              }
            }
          }
        }
        JOINT RightShoulder
        {
          OFFSET 27.5927 4.71444 -2.65209
          CHANNELS 3 Zrotation Xrotation Yrotation
          JOINT RightArm
          {
            OFFSET 2.83739 -1.17114 -18.7564
            CHANNELS 3 Zrotation Xrotation Yrotation
            JOINT RightForeArm
            {
              OFFSET 28.839 -0.0548439 1.22491
              CHANNELS 3 Zrotation Xrotation Yrotation
              JOINT RightHand
              {
                OFFSET 26.5114 0 -0.101894
                CHANNELS 3 Zrotation Xrotation Yrotation
                End Site
                {
                  OFFSET 18.2168 0 0
                }
              }
            }
          }
        }
      }
    }
  }
  JOINT LeftUpLeg
  {
    OFFSET -4.76168 -1.9167 -10.2353
    CHANNELS 3 Zrotation Xrotation Yrotation
    JOINT LeftLeg
    {
      OFFSET 2.55951 -42.0585 -8.02213
      CHANNELS 3 Zrotation Xrotation Yrotation
      JOINT LeftFoot
      {
        OFFSET 3.16357 -42.5282 -3.95426
        CHANNELS 3 Zrotation Xrotation Yrotation
        JOINT LeftToeBase
        {
          OFFSET 0.346054 -6.02161 12.8035
          CHANNELS 3 Zrotation Xrotation Yrotation
          End Site
          {
            OFFSET 0.134235 -1.35082 5.13018
          }
        }
      }
    }
  }
  JOINT RightUpLeg
  {
    OFFSET -4.94151 -1.41743 10.6446
    CHANNELS 3 Zrotation Xrotation Yrotation
    JOINT RightLeg
    {
      OFFSET -2.56294 -42.0364 -7.94377
      CHANNELS 3 Zrotation Xrotation Yrotation
      JOINT RightFoot
      {
        OFFSET -3.0952 -42.555 -4.02241
        CHANNELS 3 Zrotation Xrotation Yrotation
        JOINT RightToeBase
        {
          OFFSET -0.0828122 -6.13587 12.8035
          CHANNELS 3 Zrotation Xrotation Yrotation
          End Site
          {
            OFFSET -0.131328 -1.35082 5.13018
          }
        }
      }
    }
  }
}
MOTION
Frames:	6
Frame Time:	0.0333333
5.78187 94.3565 -221.32 70.549 -34.0198 -8.77947 -70.1915 0 88.8779 86.4373 73.8037 -2.70735 0.563436 21.7212 7.35569 -119.433 32.9536 152.576 -174.971 78.5377 -152.204 0.24366 -15.7393 -24.3873 -63.032 29.6609 -149.417 19.0468 -1.02673 -92.2656 0.420957 0.000575565 0.35866 -2.13703 6.62706 46.5736 -127.308 -3.21245 93.3848 12.4622 -0.614859 87.0165 0.58676 0.000330692 0.0646652 -47.7965 8.40631 93.5101 -3.32324 45.5134 -7.75525 2.25073 -17.5551 -1.43771 2.26272 -8.01677 12.3044 -42.4121 -10.9764 75.2767 2.83776 29.8347 -5.33808 -5.34448 0.766562 0.816198 0.382984 -3.40364 0.116404 
5.76765 94.3551 -221.348 70.4215 -34.1481 -8.83702 -70.1915 0 88.8779 86.2964 73.8994 -2.36575 0.637994 21.8518 7.278 -120.032 33.1026 152.905 -176.371 78.4512 -151.215 0.222507 -15.8565 -24.466 -63.1225 29.6807 -149.431 19.178 -1.0056 -92.1844 0.420957 0.000575565 0.35866 -2.13015 6.68853 46.1836 -127.202 -3.40846 93.0585 12.479 -0.55395 87.2438 0.58676 0.000330692 0.0646652 -47.7288 8.45699 93.5139 -3.33205 45.5171 -7.82859 2.04173 -17.6968 -1.45229 2.07166 -7.79765 12.7477 -42.2467 -10.8088 75.4691 2.81423 29.8535 -5.32461 -5.87886 1.19467 0.87696 0.498348 -4.10928 -0.104061 
5.74977 94.3789 -221.366 70.2674 -34.3322 -8.97206 -70.1915 0 88.8779 85.2745 74.1939 -1.45495 0.796761 22.102 7.50571 -120.663 33.321 152.804 -178.49 78.5237 -149.956 0.235613 -15.8054 -24.3564 -63.0474 29.5518 -149.79 19.2704 -0.991481 -92.1302 0.420957 0.000575565 0.35866 -2.05369 6.52517 45.8515 -127.344 -3.4938 92.6716 13.0383 -0.570058 87.475 0.58676 0.000330692 0.0646652 -47.7108 8.47492 93.5889 -3.32581 45.4253 -7.89427 2.25079 -17.5712 -1.43856 2.07775 -7.93662 13.3782 -42.0086 -10.7451 75.5037 2.79513 30.0126 -5.01569 -5.87642 1.42611 0.871392 0.594523 -4.3378 -0.656211 
5.73447 94.3802 -221.391 70.2771 -34.3542 -9.10965 -70.1915 0 88.8779 85.5079 74.2978 -1.79469 0.596817 22.2192 7.48173 -120.597 33.4074 152.756 -179.963 78.5668 -148.607 0.227257 -15.8682 -24.3416 -63.0568 29.3931 -149.83 19.2391 -0.981696 -92.1074 0.420957 0.000575565 0.35866 -2.03661 6.47221 45.8541 -127.432 -3.51183 92.4433 13.9738 -0.572116 87.5045 0.58676 0.000330692 0.0646652 -47.7798 8.35019 93.6762 -3.29675 45.318 -7.78058 2.36529 -17.5581 -1.43471 2.10519 -7.9399 13.1772 -41.9275 -10.8823 75.4835 2.71314 30.1388 -4.92212 -5.56477 1.18445 0.83372 0.47664 -3.81257 -0.225275 
5.69694 94.3849 -221.397 70.284 -34.3193 -9.138 -70.1915 0 88.8779 85.7728 74.3052 -2.17007 0.464129 22.1999 7.55735 -120.563 33.3873 152.645 -178.937 78.6264 -149.528 0.238037 -15.8094 -24.298 -62.951 29.2539 -149.949 19.3914 -0.975803 -92.0675 0.420957 0.000575565 0.35866 -2.02873 6.43976 45.8941 -127.43 -3.54343 92.6134 14.6083 -0.682872 87.3557 0.58676 0.000330692 0.0646652 -47.7781 8.2514 93.5782 -3.29785 45.286 -7.8322 2.26764 -17.54 -1.43614 2.11715 -8.00677 13.4089 -41.8938 -10.8757 75.5554 2.67196 30.1469 -4.74799 -5.51119 1.23594 0.825062 0.551779 -3.9398 -0.68205 
5.69473 94.3729 -221.407 70.3003 -34.2826 -9.12125 -70.1915 0 88.8779 85.8763 74.2979 -2.3327 0.412369 22.1594 7.66754 -120.63 33.3439 152.702 -178.193 78.5862 -150.097 0.230392 -15.8006 -24.4718 -62.9535 29.1887 -149.953 19.4623 -0.997467 -92.1173 0.420957 0.000575565 0.35866 -2.00524 6.41759 45.6523 -127.39 -3.7089 92.5953 15.4268 -0.741001 87.2105 0.58676 0.000330692 0.0646652 -47.787 8.18542 93.505 -3.2962 45.2763 -7.83083 2.20604 -17.4121 -1.42989 2.33446 -8.37632 13.515 -41.873 -10.9021 75.5105 2.69334 30.1715 -4.78488 -5.94619 1.40723 0.881275 0.615025 -4.35653 -0.800837 
